<?xml version="1.0" encoding="utf-8"?>
<!-- Generator: Adobe Illustrator 16.0.0, SVG Export Plug-In . SVG Version: 6.00 Build 0)  -->
<!DOCTYPE svg PUBLIC "-//W3C//DTD SVG 1.1//EN" "http://www.w3.org/Graphics/SVG/1.1/DTD/svg11.dtd">
<svg version="1.1" id="图层_1" xmlns="http://www.w3.org/2000/svg" xmlns:xlink="http://www.w3.org/1999/xlink" x="0px" y="0px"
	 width="30px" height="24px" viewBox="0 0 1024 1024" enable-background="new 0 0 1024 1024" xml:space="preserve">
<path fill="#ffffff" d="M662.257,382.457c0,32.885-25.799,59.2-58.201,59.2c-32.37,0-58.686-26.315-58.686-59.2
	c0-32.371,26.315-58.686,58.686-58.686c4.059,0,7.601,1.514,11.657,2.028c-29.343-20.743-65.285-33.401-103.715-33.401
	c-100.201,0-181.142,81.971-181.142,183.172c0,100.656,80.943,182.629,181.142,182.629c100.171,0,181.115-81.972,181.115-182.629
	c0-38.972-12.657-75.399-33.401-104.742C660.741,374.887,662.256,378.429,662.257,382.457L662.257,382.457z M1014.371,457.858
	C929.886,303.029,730.544,146.716,512,146.716c-218.571,0-417.915,156.314-501.886,311.143L0,475.571l10.114,17.686
	C94.086,647.572,293.429,804.399,512,804.399c218.544,0,417.885-156.829,502.371-311.143l9.629-17.686L1014.371,457.858
	L1014.371,457.858z M512,731.571c-180.114,0-350.629-129.028-428.542-256c77.914-127.514,248.428-256,428.542-256
	c180.085,0,350.599,128.486,428.515,256C862.6,602.543,692.085,731.571,512,731.571z"/>
</svg>
