<?xml version="1.0" encoding="utf-8"?>
<!-- Generator: Adobe Illustrator 16.0.0, SVG Export Plug-In . SVG Version: 6.00 Build 0)  -->
<!DOCTYPE svg PUBLIC "-//W3C//DTD SVG 1.1//EN" "http://www.w3.org/Graphics/SVG/1.1/DTD/svg11.dtd">
<svg version="1.1" id="图层_1" xmlns="http://www.w3.org/2000/svg" xmlns:xlink="http://www.w3.org/1999/xlink" x="0px" y="0px"
	 width="16px" height="16px" viewBox="0 0 1024 1024" enable-background="new 0 0 1024 1024" xml:space="preserve">
<path fill="#ffffff" d="M512.546,60.182c0,0-12.561-0.606-24.03,7.885C476.501,77.166,26.487,490.212,26.487,490.212
	s-32.768,28.507,2.731,78.849c35.499,50.343,74.82,4.246,74.82,4.246L512,174.21l414.515,405.162c0,0,36.591,33.965,70.451-12.737
	c33.86-47.311-3.276-80.062-3.276-80.062L872.448,375.578V180.881H707.515v44.277L539.306,69.887
	C539.306,69.887,528.383,58.97,512.546,60.182L512.546,60.182z"/>
<path fill="#ffffff" d="M512.546,232.437L102.4,629.107v334.197l333.141,0.606V690.367l152.917,1.818v271.119l333.141,0.606V629.714
	L512.546,232.437z"/>
</svg>
