<?xml version="1.0" encoding="utf-8"?>
<!-- Generator: Adobe Illustrator 16.0.0, SVG Export Plug-In . SVG Version: 6.00 Build 0)  -->
<!DOCTYPE svg PUBLIC "-//W3C//DTD SVG 1.1//EN" "http://www.w3.org/Graphics/SVG/1.1/DTD/svg11.dtd">
<svg version="1.1" id="图层_1" xmlns="http://www.w3.org/2000/svg" xmlns:xlink="http://www.w3.org/1999/xlink" x="0px" y="0px"
	 width="24px" height="24px" viewBox="0 0 1024 1024" enable-background="new 0 0 1024 1024" xml:space="preserve">
<path fill="#ffffff" d="M1000,553.143v-82.284c0.001-16.616-11.725-30.921-28.017-34.183l-106.303-21.262
	c-11.995-2.429-21.851-10.945-25.991-22.461c-3.507-9.688-7.439-19.172-11.797-28.453c-5.226-11.078-4.283-24.081,2.484-34.291
	l60.139-90.204c9.218-13.825,7.394-32.236-4.356-43.985l-58.179-58.179c-11.75-11.75-30.16-13.574-43.985-4.357l-90.205,60.139
	c-10.208,6.768-23.212,7.71-34.29,2.484c-9.273-4.357-18.761-8.286-28.463-11.786c-11.516-4.14-20.032-13.996-22.461-25.99
	L587.313,52.016C584.054,35.729,569.754,24.004,553.142,24h-82.283c-16.616-0.001-30.921,11.725-34.183,28.016L415.413,158.32
	c-2.429,11.995-10.945,21.85-22.461,25.99c-9.688,3.508-19.171,7.44-28.453,11.797c-11.078,5.226-24.081,4.285-34.29-2.484
	l-90.205-60.139c-13.825-9.217-32.236-7.394-43.985,4.357l-58.179,58.179c-11.75,11.749-13.574,30.16-4.357,43.985l60.139,90.204
	c6.769,10.209,7.71,23.213,2.484,34.291c-4.357,9.274-8.286,18.762-11.786,28.463c-4.141,11.516-13.996,20.033-25.991,22.461
	L52.016,436.687c-16.288,3.259-28.012,17.56-28.016,34.171v82.272c-0.001,16.615,11.725,30.922,28.017,34.182l106.303,21.264
	c11.995,2.429,21.85,10.945,25.99,22.461c3.508,9.694,7.44,19.182,11.797,28.463c5.226,11.078,4.285,24.082-2.483,34.29
	l-60.14,90.205c-9.217,13.825-7.394,32.235,4.357,43.985l58.179,58.179c11.749,11.75,30.16,13.574,43.985,4.357l90.205-60.14
	c10.209-6.768,23.212-7.71,34.29-2.484c9.274,4.357,18.762,8.286,28.463,11.787c11.516,4.14,20.034,13.995,22.461,25.989
	l21.263,106.303c3.255,16.293,17.556,28.023,34.171,28.028h82.272c16.615,0.001,30.922-11.725,34.182-28.017l21.264-106.303
	c2.428-11.995,10.945-21.85,22.461-25.991c9.694-3.507,19.182-7.439,28.463-11.797c11.078-5.226,24.082-4.283,34.29,2.484
	l90.205,60.14c13.825,9.217,32.235,7.394,43.985-4.357l58.179-58.179c11.75-11.75,13.574-30.16,4.356-43.985l-60.139-90.205
	c-6.768-10.208-7.71-23.212-2.484-34.29c4.357-9.273,8.286-18.761,11.787-28.463c4.14-11.516,13.994-20.032,25.989-22.461
	l106.304-21.264C988.265,584.058,999.995,569.757,1000,553.143z M659.881,659.893c-81.677,81.672-214.1,81.668-295.771-0.011
	c-81.673-81.677-81.669-214.1,0.009-295.772c81.677-81.672,214.1-81.668,295.772,0.01c39.22,39.221,61.252,92.415,61.252,147.88
	c0.149,55.497-21.91,108.748-61.262,147.881V659.893z"/>
</svg>
